<svg width="72" height="72" viewBox="0 0 72 72" xmlns="http://www.w3.org/2000/svg">
  <rect width="72" height="72" rx="14" fill="#1a1918"/>
  <rect x="4" y="4" width="64" height="64" rx="10" fill="#232220"/>
  <rect x="14" y="20" width="26" height="34" rx="2" fill="none" stroke="#c9a96e" stroke-width="1.8"/>
  <rect x="14" y="20" width="5" height="34" rx="1" fill="#c9a96e" opacity="0.35"/>
  <line x1="22" y1="29" x2="37" y2="29" stroke="#c9a96e" stroke-width="1.1" opacity="0.65"/>
  <line x1="22" y1="34" x2="37" y2="34" stroke="#c9a96e" stroke-width="1.1" opacity="0.65"/>
  <line x1="22" y1="39" x2="34" y2="39" stroke="#c9a96e" stroke-width="1.1" opacity="0.65"/>
  <path d="M54 14 C54 14 34 26 30 50" fill="none" stroke="#c9a96e" stroke-width="1.5" stroke-linecap="round"/>
  <path d="M54 14 C48 16 42 24 40 32 C38 40 36 46 30 50" fill="none" stroke="#c9a96e" stroke-width="1.5" stroke-linecap="round"/>
  <path d="M54 14 C58 20 56 30 50 37 C44 44 38 47 30 50" fill="none" stroke="#c9a96e" stroke-width="1.3" stroke-linecap="round" opacity="0.55"/>
  <circle cx="30" cy="50" r="1.8" fill="#c9a96e"/>
  <line x1="26" y1="54" x2="36" y2="54" stroke="#c9a96e" stroke-width="1.1" opacity="0.4"/>
</svg>
